<?xml version="1.0" encoding="iso-8859-1"?>
<!-- Generator: Adobe Illustrator 19.0.0, SVG Export Plug-In . SVG Version: 6.00 Build 0)  -->
<svg version="1.1" id="Capa_1" xmlns="http://www.w3.org/2000/svg" xmlns:xlink="http://www.w3.org/1999/xlink" x="0px" y="0px"
	 viewBox="0 0 512 512" style="enable-background:new 0 0 512 512;" xml:space="preserve">
<linearGradient id="SVGID_1_" gradientUnits="userSpaceOnUse" x1="0.5956" y1="257.2283" x2="512.5956" y2="257.2283" gradientTransform="matrix(0.9981 0 0 -0.9981 -0.0955 512.7269)">
	<stop  offset="95%" style="stop-color:#1b9aaa"/>
	<stop  offset="5%" style="stop-color:#9baec8"/>
</linearGradient>
<path style="fill:url(#SVGID_1_);" d="M491.54,165.676h-50.039l-67.289-97.194c-3.53-5.099-9.23-8.268-15.425-8.575
	c-6.186-0.307-12.179,2.283-16.196,7.008l-16.193,19.052L278.953,9.442c-3.496-5.638-9.564-9.171-16.194-9.428
	c-6.636-0.256-12.954,2.8-16.874,8.15l-47.088,64.279L183.05,51.778c-3.93-5.159-10.138-8.078-16.602-7.851
	c-6.481,0.236-12.444,3.605-15.99,9.034L76.857,165.676H20.46c-11.024,0-19.961,8.937-19.961,19.961
	c0,11.024,8.937,19.961,19.961,19.961h46.634c0.374,0.472,0.775,0.926,1.197,1.367l124.425,292.878
	c3.093,7.281,10.194,12.048,18.105,12.154c0.09,0.001,0.18,0.002,0.269,0.002c7.805,0,14.905-4.554,18.155-11.667l37.593-82.297
	l34.296,45.157c3.775,4.969,9.656,7.888,15.896,7.888h1.181c7.799,0,14.885-4.543,18.14-11.629l82.508-179.649
	c4.601-10.018,0.21-21.869-9.809-26.47c-10.015-4.599-21.869-0.21-26.47,9.808l-69.056,150.36l-27.858-36.68l17.436-38.17
	c4.58-10.027,0.165-21.869-9.863-26.45c-10.029-4.582-21.87-0.165-26.45,9.864l-21.428,46.909
	c-0.785,1.306-33.145,72.147-33.609,73.577l0,0l-100.664-236.95H491.54c11.024,0,19.961-8.937,19.961-19.961
	C511.501,174.613,502.564,165.676,491.54,165.676z M168.429,98.461l14.804,19.431c3.778,4.958,9.651,7.864,15.877,7.864
	c0.063,0,0.126,0,0.189-0.001c6.296-0.06,12.194-3.085,15.915-8.164l45.396-61.97l46.293,74.665
	c3.361,5.422,9.112,8.911,15.474,9.387c6.364,0.472,12.568-2.117,16.699-6.977l17.105-20.123l36.766,53.104H124.538L168.429,98.461z
	"/>
<g>
</g>
<g>
</g>
<g>
</g>
<g>
</g>
<g>
</g>
<g>
</g>
<g>
</g>
<g>
</g>
<g>
</g>
<g>
</g>
<g>
</g>
<g>
</g>
<g>
</g>
<g>
</g>
<g>
</g>
</svg>
